<svg width="75" height="32" viewBox="0 0 75 32" fill="none" xmlns="http://www.w3.org/2000/svg">
<path d="M73.7709 8.27891C73.7709 8.91383 73.5599 9.44671 73.1379 9.87755C72.7369 10.3311 72.2419 10.5578 71.6509 10.5578H58.9939C58.5929 10.5805 58.2549 10.6825 57.9809 10.8639C57.7279 11.0227 57.5379 11.2154 57.4119 11.4422C57.2849 11.6463 57.2219 11.8617 57.2219 12.0884C57.2219 12.3152 57.2849 12.542 57.4119 12.7687C57.5379 12.9728 57.7279 13.1655 57.9809 13.3469C58.2549 13.5057 58.5929 13.5964 58.9939 13.619H67.9799C69.4569 13.6644 70.6699 14.0385 71.6189 14.7415C72.5899 15.4218 73.2749 16.2154 73.6759 17.1224C74.0979 18.0068 74.3089 18.9138 74.3089 19.8435C74.3089 20.7506 74.0979 21.6576 73.6759 22.5646C73.2539 23.449 72.5689 24.2426 71.6189 24.9456C70.6699 25.6259 69.4569 25.966 67.9799 25.966H67.7909C67.6639 25.9887 67.5369 26 67.4109 26H55.4497C54.8591 26 54.3528 25.7846 53.9309 25.3537C53.5301 24.9002 53.3296 24.356 53.3296 23.7211C53.3296 23.0862 53.5406 22.5533 53.9625 22.1224C54.3633 21.6689 54.8591 21.4422 55.4497 21.4422H68.1699C68.5709 21.4649 68.8979 21.3855 69.1509 21.2041C69.4249 21.0227 69.6259 20.8186 69.7519 20.5918C69.8789 20.3424 69.9419 20.093 69.9419 19.8435C69.9419 19.6848 69.8789 19.4694 69.7519 19.1973C69.6259 18.9025 69.4249 18.6644 69.1509 18.483C68.8979 18.3016 68.5709 18.1995 68.1699 18.1769H59.1839C57.7069 18.1315 56.4829 17.7687 55.513 17.0884C54.5637 16.4082 53.8781 15.6372 53.4562 14.7755C53.0554 13.8912 52.855 12.9955 52.855 12.0884C52.855 11.2041 53.066 10.3311 53.4879 9.46939C53.9098 8.58503 54.5954 7.80272 55.5446 7.12245C56.4939 6.44218 57.7069 6.07937 59.1839 6.03401H59.3739C59.4999 6.01134 59.6269 6 59.7529 6H71.6509C72.2419 6 72.7369 6.22676 73.1379 6.68027C73.5599 7.11111 73.7709 7.64399 73.7709 8.27891Z" fill="white"/>
<path d="M33.1257 25.9759C32.4061 25.9759 31.6866 25.8488 30.9671 25.5948C30.2687 25.3407 29.5915 24.9702 28.9355 24.4832C28.2794 23.9751 27.708 23.3082 27.2213 22.4825C26.7345 21.6568 26.47 20.6723 26.4277 19.529V8.06428C26.4277 7.47146 26.6393 6.9845 27.0626 6.6034C27.507 6.20113 28.0255 6 28.618 6C29.8878 6.10586 30.5756 6.79395 30.6814 8.06428V19.2749C30.7025 19.783 30.8084 20.2171 30.9988 20.577C31.1893 20.9157 31.4009 21.191 31.6337 21.4027C31.8665 21.5932 32.0993 21.7414 32.3321 21.8473C32.586 21.932 32.84 21.9743 33.0939 21.9743C33.3479 21.9743 33.6018 21.932 33.8558 21.8473C34.1097 21.7414 34.3531 21.5932 34.5859 21.4027C34.8187 21.191 35.0303 20.9157 35.2208 20.577C35.4112 20.2171 35.5065 19.783 35.5065 19.2749V8.06428C35.5065 7.47146 35.7181 6.9845 36.1414 6.6034C36.5858 6.20113 37.1043 6 37.6968 6C38.9666 6.10586 39.6649 6.79395 39.7919 8.06428V19.2749C39.8131 19.783 39.9189 20.2065 40.1094 20.5452C40.2998 20.9051 40.5115 21.191 40.7442 21.4027C40.977 21.5932 41.2098 21.7414 41.4426 21.8473C41.6966 21.932 41.9505 21.9743 42.2045 21.9743C42.4584 21.9743 42.7124 21.932 42.9663 21.8473C43.2203 21.7414 43.4636 21.5932 43.6964 21.4027C43.9292 21.191 44.1409 20.9157 44.3313 20.577C44.5218 20.2171 44.617 19.783 44.617 19.2749V8.06428C44.617 7.47146 44.8286 6.9845 45.2519 6.6034C45.6963 6.20113 46.2148 6 46.8074 6C48.0771 6.10586 48.7755 6.79395 48.9025 8.06428V19.529C48.9025 20.6723 48.6485 21.6568 48.1406 22.4825C47.6539 23.3082 47.0825 23.9751 46.4264 24.4832C45.7915 24.9702 45.1143 25.3407 44.3948 25.5948C43.6964 25.8488 42.9769 25.9759 42.2362 25.9759C41.5167 25.9759 40.7971 25.8488 40.0776 25.5948C39.3792 25.3407 38.702 24.9596 38.046 24.4515C37.919 24.3668 37.8026 24.2715 37.6968 24.1656C37.5698 24.2715 37.4534 24.3668 37.3476 24.4515C36.6916 24.9596 36.0038 25.3407 35.2843 25.5948C34.5859 25.8488 33.8664 25.9759 33.1257 25.9759Z" fill="white"/>
<path d="M6.698 6C7.4387 6 8.1582 6.12703 8.8566 6.3811C9.5761 6.63516 10.2639 7.00567 10.9199 7.49263C11.0258 7.59849 11.1422 7.70435 11.2691 7.81021C11.3749 7.70435 11.4913 7.59849 11.6183 7.49263C12.2744 7.00567 12.9516 6.63516 13.6499 6.3811C14.3695 6.12703 15.089 6 15.8085 6C16.5492 6 17.2688 6.12703 17.9671 6.3811C18.6867 6.63516 19.3639 7.01626 19.9987 7.52439C20.6548 8.01135 21.2262 8.66768 21.7129 9.49339C22.2208 10.3191 22.4748 11.3036 22.4748 12.4469V23.9116C22.3478 25.1819 21.6494 25.87 20.3797 25.9759C19.7871 25.9759 19.2686 25.7853 18.8242 25.4042C18.401 25.0019 18.1893 24.5044 18.1893 23.9116V12.701C18.1893 12.1928 18.0941 11.7694 17.9036 11.4306C17.7132 11.0707 17.5015 10.7955 17.2688 10.6049C17.036 10.3932 16.7926 10.245 16.5386 10.1603C16.2847 10.0545 16.0307 10.0015 15.7768 10.0015C15.5228 10.0015 15.2689 10.0545 15.0149 10.1603C14.7821 10.245 14.5494 10.3932 14.3166 10.6049C14.0838 10.7955 13.8721 11.0707 13.6817 11.4306C13.4912 11.7694 13.3854 12.1928 13.3642 12.701V23.9116C13.2373 25.1819 12.5389 25.87 11.2691 25.9759C10.6766 25.9759 10.1581 25.7853 9.7137 25.4042C9.2904 25.0019 9.0788 24.5044 9.0788 23.9116V12.701C9.0788 12.1928 8.9836 11.7694 8.7931 11.4306C8.6026 11.0707 8.391 10.7955 8.1582 10.6049C7.9254 10.3932 7.6821 10.245 7.4281 10.1603C7.1742 10.0545 6.9202 10.0015 6.6662 10.0015C6.4123 10.0015 6.1583 10.0545 5.9044 10.1603C5.6716 10.245 5.4388 10.3932 5.206 10.6049C4.9732 10.7955 4.7616 11.0707 4.5711 11.4306C4.3807 11.7694 4.2749 12.1928 4.2537 12.701V23.9116C4.1479 25.1819 3.4601 25.87 2.1903 25.9759C1.5978 25.9759 1.0793 25.7853 0.634899 25.4042C0.211599 25.0019 0 24.5044 0 23.9116V12.4469C0.0423 11.3036 0.306898 10.3191 0.793598 9.49339C1.2803 8.66768 1.8517 8.01135 2.5078 7.52439C3.1638 7.01626 3.841 6.63516 4.5394 6.3811C5.2589 6.12703 5.9785 6 6.698 6Z" fill="white"/>
</svg>
