<svg width="119" height="32" viewBox="0 0 119 32" fill="none" xmlns="http://www.w3.org/2000/svg">
<g id="logotype 1" clip-path="url(#clip0_421_540)">
<g id="Clip path group">
<mask id="mask0_421_540" style="mask-type:luminance" maskUnits="userSpaceOnUse" x="0" y="0" width="32" height="32">
<g id="clip0_27_115">
<path id="Vector" d="M32 0H0V32H32V0Z" fill="white"/>
</g>
</mask>
<g mask="url(#mask0_421_540)">
<g id="Group">
<path id="Vector_2" d="M15.9991 0C8.01278 0 1.4003 5.88224 0.257812 13.5506C5.09019 16.6845 6.71628 20.73 13.5819 15.4705C20.4476 10.2109 23.8277 6.06733 29.8039 7.98949C27.0565 3.21482 21.9033 0 15.9991 0Z" fill="url(#paint0_linear_421_540)"/>
<path id="Vector_3" d="M0.259376 13.5506L0.201172 13.9816C3.71709 20.1033 8.80947 20.8863 13.6466 17.0999C18.4838 13.3135 24.4809 6.14339 30.8298 10.1235C30.5405 9.38361 30.1976 8.67065 29.8055 7.98946C23.8293 6.0673 20.4492 10.2109 13.5835 15.4705C6.71784 20.73 5.09175 16.6845 0.259376 13.5506Z" fill="url(#paint1_linear_421_540)"/>
<path id="Vector_4" d="M1.14648 21.6458C3.4466 27.6049 9.22961 31.8324 16 31.8324C23.471 31.8324 29.7396 26.6848 31.4529 19.743C28.3543 16.9198 24.8397 19.3582 18.7781 23.5637L18.7543 23.5801C12.6781 27.7956 7.12058 26.6333 1.14648 21.6458Z" fill="url(#paint2_radial_421_540)"/>
<path id="Vector_5" d="M0.200337 13.9814C0.123521 14.6155 0.0839844 15.261 0.0839844 15.9157C0.0839844 17.9355 0.460191 19.8673 1.14636 21.645C7.12046 26.6326 12.678 27.7949 18.7542 23.5793L18.778 23.5629C24.8397 19.3574 28.3542 16.9191 31.4529 19.7423C31.7554 18.5165 31.9158 17.2349 31.9158 15.9157C31.9158 13.8721 31.5307 11.9184 30.829 10.1233C24.4801 6.14321 18.483 13.3134 13.6458 17.0998C8.80864 20.8861 3.71626 20.1032 0.200337 13.9814Z" fill="url(#paint3_radial_421_540)"/>
<g id="Group_2" filter="url(#filter0_f_421_540)">
<path id="Vector_6" d="M4.5167 9.69871C3.54957 6.60818 11.497 1.66718 13.9569 2.90764C14.7957 3.28208 14.7559 3.6644 14.5877 3.95889C14.4195 4.25339 12.6534 5.64089 11.497 7.93261C10.3406 10.2244 5.48384 12.7893 4.5167 9.69871Z" fill="url(#paint4_linear_421_540)" fill-opacity="0.2"/>
</g>
</g>
</g>
</g>
<path id="Vector_7" d="M117.771 8.27891C117.771 8.91383 117.56 9.44671 117.138 9.87755C116.737 10.3311 116.242 10.5578 115.651 10.5578H102.994C102.593 10.5805 102.255 10.6825 101.981 10.8639C101.728 11.0227 101.538 11.2154 101.412 11.4422C101.285 11.6463 101.222 11.8617 101.222 12.0884C101.222 12.3152 101.285 12.542 101.412 12.7687C101.538 12.9728 101.728 13.1655 101.981 13.3469C102.255 13.5057 102.593 13.5964 102.994 13.619H111.98C113.457 13.6644 114.67 14.0385 115.619 14.7415C116.59 15.4218 117.275 16.2154 117.676 17.1224C118.098 18.0068 118.309 18.9138 118.309 19.8435C118.309 20.7506 118.098 21.6576 117.676 22.5646C117.254 23.449 116.569 24.2426 115.619 24.9456C114.67 25.6259 113.457 25.966 111.98 25.966H111.791C111.664 25.9887 111.537 26 111.411 26H99.4502C98.8596 26 98.3533 25.7846 97.9314 25.3537C97.5306 24.9002 97.3301 24.356 97.3301 23.7211C97.3301 23.0862 97.5411 22.5533 97.963 22.1224C98.3638 21.6689 98.8596 21.4422 99.4502 21.4422H112.17C112.571 21.4649 112.898 21.3855 113.151 21.2041C113.425 21.0227 113.626 20.8186 113.752 20.5918C113.879 20.3424 113.942 20.093 113.942 19.8435C113.942 19.6848 113.879 19.4694 113.752 19.1973C113.626 18.9025 113.425 18.6644 113.151 18.483C112.898 18.3016 112.571 18.1995 112.17 18.1769H103.184C101.707 18.1315 100.483 17.7687 99.5135 17.0884C98.5642 16.4082 97.8786 15.6372 97.4567 14.7755C97.0559 13.8912 96.8555 12.9955 96.8555 12.0884C96.8555 11.2041 97.0665 10.3311 97.4884 9.46939C97.9103 8.58503 98.5959 7.80272 99.5451 7.12245C100.494 6.44218 101.707 6.07937 103.184 6.03401H103.374C103.5 6.01134 103.627 6 103.753 6H115.651C116.242 6 116.737 6.22676 117.138 6.68027C117.56 7.11111 117.771 7.64399 117.771 8.27891Z" fill="white"/>
<path id="Vector_8" d="M77.1257 25.9759C76.4061 25.9759 75.6866 25.8488 74.9671 25.5948C74.2687 25.3407 73.5915 24.9702 72.9355 24.4832C72.2794 23.9751 71.708 23.3082 71.2213 22.4825C70.7345 21.6568 70.47 20.6723 70.4277 19.529V8.06428C70.4277 7.47146 70.6393 6.9845 71.0626 6.6034C71.507 6.20113 72.0255 6 72.618 6C73.8878 6.10586 74.5756 6.79395 74.6814 8.06428V19.2749C74.7025 19.783 74.8084 20.2171 74.9988 20.577C75.1893 20.9157 75.4009 21.191 75.6337 21.4027C75.8665 21.5932 76.0993 21.7414 76.3321 21.8473C76.586 21.932 76.84 21.9743 77.0939 21.9743C77.3479 21.9743 77.6018 21.932 77.8558 21.8473C78.1097 21.7414 78.3531 21.5932 78.5859 21.4027C78.8187 21.191 79.0303 20.9157 79.2208 20.577C79.4112 20.2171 79.5065 19.783 79.5065 19.2749V8.06428C79.5065 7.47146 79.7181 6.9845 80.1414 6.6034C80.5858 6.20113 81.1043 6 81.6968 6C82.9666 6.10586 83.6649 6.79395 83.7919 8.06428V19.2749C83.8131 19.783 83.9189 20.2065 84.1094 20.5452C84.2998 20.9051 84.5115 21.191 84.7442 21.4027C84.977 21.5932 85.2098 21.7414 85.4426 21.8473C85.6966 21.932 85.9505 21.9743 86.2045 21.9743C86.4584 21.9743 86.7124 21.932 86.9663 21.8473C87.2203 21.7414 87.4636 21.5932 87.6964 21.4027C87.9292 21.191 88.1409 20.9157 88.3313 20.577C88.5218 20.2171 88.617 19.783 88.617 19.2749V8.06428C88.617 7.47146 88.8286 6.9845 89.2519 6.6034C89.6963 6.20113 90.2148 6 90.8074 6C92.0771 6.10586 92.7755 6.79395 92.9025 8.06428V19.529C92.9025 20.6723 92.6485 21.6568 92.1406 22.4825C91.6539 23.3082 91.0825 23.9751 90.4264 24.4832C89.7915 24.9702 89.1143 25.3407 88.3948 25.5948C87.6964 25.8488 86.9769 25.9759 86.2362 25.9759C85.5167 25.9759 84.7971 25.8488 84.0776 25.5948C83.3792 25.3407 82.702 24.9596 82.046 24.4515C81.919 24.3668 81.8026 24.2715 81.6968 24.1656C81.5698 24.2715 81.4534 24.3668 81.3476 24.4515C80.6916 24.9596 80.0038 25.3407 79.2843 25.5948C78.5859 25.8488 77.8664 25.9759 77.1257 25.9759Z" fill="white"/>
<path id="Vector_9" d="M50.698 6C51.4387 6 52.1582 6.12703 52.8566 6.3811C53.5761 6.63516 54.2639 7.00567 54.9199 7.49263C55.0258 7.59849 55.1422 7.70435 55.2691 7.81021C55.3749 7.70435 55.4913 7.59849 55.6183 7.49263C56.2744 7.00567 56.9516 6.63516 57.6499 6.3811C58.3695 6.12703 59.089 6 59.8085 6C60.5492 6 61.2688 6.12703 61.9671 6.3811C62.6867 6.63516 63.3639 7.01626 63.9987 7.52439C64.6548 8.01135 65.2262 8.66768 65.7129 9.49339C66.2208 10.3191 66.4748 11.3036 66.4748 12.4469V23.9116C66.3478 25.1819 65.6494 25.87 64.3797 25.9759C63.7871 25.9759 63.2686 25.7853 62.8242 25.4042C62.401 25.0019 62.1893 24.5044 62.1893 23.9116V12.701C62.1893 12.1928 62.0941 11.7694 61.9036 11.4306C61.7132 11.0707 61.5015 10.7955 61.2688 10.6049C61.036 10.3932 60.7926 10.245 60.5386 10.1603C60.2847 10.0545 60.0307 10.0015 59.7768 10.0015C59.5228 10.0015 59.2689 10.0545 59.0149 10.1603C58.7821 10.245 58.5494 10.3932 58.3166 10.6049C58.0838 10.7955 57.8721 11.0707 57.6817 11.4306C57.4912 11.7694 57.3854 12.1928 57.3642 12.701V23.9116C57.2373 25.1819 56.5389 25.87 55.2691 25.9759C54.6766 25.9759 54.1581 25.7853 53.7137 25.4042C53.2904 25.0019 53.0788 24.5044 53.0788 23.9116V12.701C53.0788 12.1928 52.9836 11.7694 52.7931 11.4306C52.6026 11.0707 52.391 10.7955 52.1582 10.6049C51.9254 10.3932 51.6821 10.245 51.4281 10.1603C51.1742 10.0545 50.9202 10.0015 50.6662 10.0015C50.4123 10.0015 50.1583 10.0545 49.9044 10.1603C49.6716 10.245 49.4388 10.3932 49.206 10.6049C48.9732 10.7955 48.7616 11.0707 48.5711 11.4306C48.3807 11.7694 48.2749 12.1928 48.2537 12.701V23.9116C48.1479 25.1819 47.4601 25.87 46.1903 25.9759C45.5978 25.9759 45.0793 25.7853 44.6349 25.4042C44.2116 25.0019 44 24.5044 44 23.9116V12.4469C44.0423 11.3036 44.3069 10.3191 44.7936 9.49339C45.2803 8.66768 45.8517 8.01135 46.5078 7.52439C47.1638 7.01626 47.841 6.63516 48.5394 6.3811C49.2589 6.12703 49.9785 6 50.698 6Z" fill="white"/>
</g>
<defs>
<filter id="filter0_f_421_540" x="-25.5645" y="-27.2881" width="70.2495" height="68.4121" filterUnits="userSpaceOnUse" color-interpolation-filters="sRGB">
<feFlood flood-opacity="0" result="BackgroundImageFix"/>
<feBlend mode="normal" in="SourceGraphic" in2="BackgroundImageFix" result="shape"/>
<feGaussianBlur stdDeviation="15" result="effect1_foregroundBlur_421_540"/>
</filter>
<linearGradient id="paint0_linear_421_540" x1="25.0188" y1="8.48358" x2="6.40124" y2="-0.767396" gradientUnits="userSpaceOnUse">
<stop stop-color="#DE2E02"/>
<stop offset="0.818921" stop-color="#FFBA0A"/>
</linearGradient>
<linearGradient id="paint1_linear_421_540" x1="3.23856" y1="16.8305" x2="26.9757" y2="8.51508" gradientUnits="userSpaceOnUse">
<stop stop-color="#FFBA0A"/>
<stop offset="1" stop-color="#E75B04"/>
</linearGradient>
<radialGradient id="paint2_radial_421_540" cx="0" cy="0" r="1" gradientUnits="userSpaceOnUse" gradientTransform="translate(5.09857 24.6418) rotate(45.048) scale(26.6043 105.654)">
<stop stop-color="#DE2E02"/>
<stop offset="0.291667" stop-color="#D10000"/>
<stop offset="0.791667" stop-color="#6C040E"/>
</radialGradient>
<radialGradient id="paint3_radial_421_540" cx="0" cy="0" r="1" gradientUnits="userSpaceOnUse" gradientTransform="translate(45.7082 13.4138) rotate(168.366) scale(71.4175 283.621)">
<stop stop-color="#6C040E"/>
<stop offset="0.152527" stop-color="#A11709"/>
<stop offset="0.409227" stop-color="#DE2E02"/>
<stop offset="0.629345" stop-color="#DE2E02"/>
</radialGradient>
<linearGradient id="paint4_linear_421_540" x1="4.8245" y1="9.5135" x2="15.9362" y2="1.3453" gradientUnits="userSpaceOnUse">
<stop stop-color="white"/>
<stop offset="0.229167" stop-color="white" stop-opacity="0.770833"/>
<stop offset="1" stop-color="white" stop-opacity="0"/>
</linearGradient>
<clipPath id="clip0_421_540">
<rect width="119" height="32" fill="white"/>
</clipPath>
</defs>
</svg>
