<svg xmlns="http://www.w3.org/2000/svg" width="96" height="95" viewBox="0 0 96 95" fill="none">
    <path d="M48.4652 0H47.5252C35.1465 0.00530023 23.2764 4.92506 14.5233 13.6781C5.77027 22.4312 0.850515 34.3013 0.845215 46.68V47.74C0.845215 60.1203 5.76327 71.9935 14.5175 80.7477C23.2717 89.5019 35.1449 94.42 47.5252 94.42H48.4652C54.5964 94.4239 60.6683 93.2192 66.3335 90.8747C71.9988 88.5302 77.1463 85.092 81.4818 80.7565C85.8172 76.4211 89.2555 71.2736 91.5999 65.6083C93.9444 59.9431 95.1491 53.8712 95.1452 47.74V46.68C95.1452 34.2997 90.2272 22.4265 81.473 13.6723C72.7188 4.91806 60.8455 0 48.4652 0Z" fill="#0088FF"/>
    <path opacity="0.2" d="M13.9952 20.84L3.41522 31.42C1.71056 36.327 0.841832 41.4853 0.845225 46.68V47.74C0.845225 60.1203 5.76328 71.9935 14.5175 80.7477C23.2717 89.5019 35.1449 94.42 47.5252 94.42H48.4652C52.395 94.4231 56.3094 93.9292 60.1152 92.95L79.9952 73.06L13.9952 20.84Z" fill="black"/>
    <path d="M80.0054 20.84H13.9854V73.06H80.0054V20.84Z" fill="#74A6A0"/>
    <path d="M79.2054 30.11H14.7954V72.16H79.2054V30.11Z" fill="white"/>
    <path d="M74.9051 25.4299C74.9051 25.7484 74.8106 26.0597 74.6337 26.3244C74.4568 26.5892 74.2053 26.7955 73.9112 26.9174C73.617 27.0392 73.2933 27.0711 72.9809 27.009C72.6686 26.9469 72.3818 26.7936 72.1566 26.5684C71.9314 26.3432 71.7781 26.0564 71.716 25.744C71.6539 25.4317 71.6858 25.108 71.8076 24.8138C71.9295 24.5196 72.1358 24.2682 72.4006 24.0913C72.6653 23.9144 72.9766 23.8199 73.295 23.8199C73.722 23.8199 74.1316 23.9896 74.4335 24.2915C74.7354 24.5934 74.9051 25.0029 74.9051 25.4299Z" fill="#803F3F"/>
    <path d="M67.9352 27.0301C68.8244 27.0301 69.5452 26.3092 69.5452 25.4201C69.5452 24.5309 68.8244 23.8101 67.9352 23.8101C67.046 23.8101 66.3252 24.5309 66.3252 25.4201C66.3252 26.3092 67.046 27.0301 67.9352 27.0301Z" fill="#526375"/>
    <path d="M62.5651 27.0301C63.4543 27.0301 64.1751 26.3092 64.1751 25.4201C64.1751 24.5309 63.4543 23.8101 62.5651 23.8101C61.6759 23.8101 60.9551 24.5309 60.9551 25.4201C60.9551 26.3092 61.6759 27.0301 62.5651 27.0301Z" fill="#FFA673"/>
    <path d="M43.5151 52.16L34.2051 62.03L36.0751 63.86L45.6851 54.27L50.2851 54.52L51.8251 49.48L50.8451 48.52L47.9251 51.58L46.6251 51.13L46.1451 49.85L49.1251 46.84L48.1351 45.89L43.1351 47.58L43.5151 52.16Z" fill="#8C8C8C"/>
    <path d="M28.2254 69.74C27.8077 69.3202 27.5732 68.7521 27.5732 68.16C27.5732 67.5678 27.8077 66.9997 28.2254 66.58L39.2254 55.58L42.4154 58.77L31.4154 69.77C31.2057 69.9806 30.9561 70.1472 30.6811 70.2599C30.4061 70.3727 30.1113 70.4293 29.8141 70.4265C29.5169 70.4237 29.2233 70.3615 28.9504 70.2436C28.6776 70.1257 28.4311 69.9545 28.2254 69.74Z" fill="#2E3842"/>
    <path d="M64.9952 53.33V47.87H59.3252C59.0071 46.5419 58.4661 45.2773 57.7252 44.13L61.7252 40.13L57.8652 36.27L53.8652 40.27C52.7146 39.5467 51.4502 39.0226 50.1252 38.72V33.04H44.6652V38.72C43.3363 39.0201 42.0682 39.5442 40.9152 40.27L36.9152 36.27L33.0452 40.13L37.0452 44.13C36.326 45.2828 35.8023 46.5465 35.4952 47.87H29.8252V53.33H35.4952C35.7642 54.4722 36.1952 55.57 36.7752 56.59L41.5052 51.86C41.3202 50.9931 41.3202 50.0969 41.5052 49.23C41.7587 48.1366 42.3139 47.1361 43.1076 46.3424C43.9013 45.5487 44.9017 44.9935 45.9952 44.74C46.9943 44.499 48.0386 44.5186 49.0279 44.797C50.0173 45.0754 50.9185 45.6033 51.6453 46.33C52.372 47.0567 52.8999 47.958 53.1783 48.9473C53.4567 49.9367 53.4763 50.9809 53.2352 51.98C52.9817 53.0735 52.4266 54.074 51.6328 54.8677C50.8391 55.6614 49.8387 56.2165 48.7452 56.47C47.8749 56.655 46.9755 56.655 46.1052 56.47L41.3752 61.2C42.398 61.7818 43.4993 62.2129 44.6452 62.48V68.13H50.1052V62.49C51.4287 62.183 52.6925 61.6592 53.8452 60.94L57.8452 64.94L61.7352 61.13L57.7352 57.13C58.461 55.9771 58.9852 54.709 59.2852 53.38L64.9952 53.33Z" fill="#526375"/>
</svg>